<mxfile host="app.diagrams.net" agent="Mozilla/5.0 (Windows NT 10.0; Win64; x64) AppleWebKit/537.36 (KHTML, like Gecko) Chrome/131.0.0.0 Safari/537.36" version="25.0.3">
  <diagram id="C5RBs43oDa-KdzZeNtuy" name="Page-1">
    <mxGraphModel dx="880" dy="528" grid="1" gridSize="10" guides="1" tooltips="1" connect="1" arrows="1" fold="1" page="1" pageScale="1" pageWidth="827" pageHeight="1169" math="0" shadow="0">
      <root>
        <mxCell id="WIyWlLk6GJQsqaUBKTNV-0" />
        <mxCell id="WIyWlLk6GJQsqaUBKTNV-1" parent="WIyWlLk6GJQsqaUBKTNV-0" />
        <mxCell id="-pZBTm40GzIMVZDB3EBW-2" value="" style="edgeStyle=none;curved=1;rounded=0;orthogonalLoop=1;jettySize=auto;html=1;fontSize=12;startSize=8;endSize=8;" edge="1" parent="WIyWlLk6GJQsqaUBKTNV-1" source="-pZBTm40GzIMVZDB3EBW-0" target="-pZBTm40GzIMVZDB3EBW-1">
          <mxGeometry relative="1" as="geometry" />
        </mxCell>
        <mxCell id="-pZBTm40GzIMVZDB3EBW-0" value="INICIO" style="ellipse;whiteSpace=wrap;html=1;aspect=fixed;strokeColor=#FFF700;" vertex="1" parent="WIyWlLk6GJQsqaUBKTNV-1">
          <mxGeometry x="360" y="20" width="80" height="80" as="geometry" />
        </mxCell>
        <mxCell id="-pZBTm40GzIMVZDB3EBW-4" value="" style="edgeStyle=none;curved=1;rounded=0;orthogonalLoop=1;jettySize=auto;html=1;fontSize=12;startSize=8;endSize=8;" edge="1" parent="WIyWlLk6GJQsqaUBKTNV-1" source="-pZBTm40GzIMVZDB3EBW-1" target="-pZBTm40GzIMVZDB3EBW-3">
          <mxGeometry relative="1" as="geometry" />
        </mxCell>
        <mxCell id="-pZBTm40GzIMVZDB3EBW-1" value="&quot;Por favor ingresar las medidas de la pieza del muebe en cms: &quot;" style="shape=parallelogram;perimeter=parallelogramPerimeter;whiteSpace=wrap;html=1;fixedSize=1;fillColor=#e3c800;fontColor=#000000;strokeColor=#B09500;" vertex="1" parent="WIyWlLk6GJQsqaUBKTNV-1">
          <mxGeometry x="290" y="120" width="220" height="60" as="geometry" />
        </mxCell>
        <mxCell id="-pZBTm40GzIMVZDB3EBW-6" value="" style="edgeStyle=none;curved=1;rounded=0;orthogonalLoop=1;jettySize=auto;html=1;fontSize=12;startSize=8;endSize=8;" edge="1" parent="WIyWlLk6GJQsqaUBKTNV-1" source="-pZBTm40GzIMVZDB3EBW-3" target="-pZBTm40GzIMVZDB3EBW-5">
          <mxGeometry relative="1" as="geometry" />
        </mxCell>
        <mxCell id="-pZBTm40GzIMVZDB3EBW-3" value="Convertir medidas en pulgadas = cm / 2.54" style="rounded=1;whiteSpace=wrap;html=1;fillColor=#6d8764;fontColor=#ffffff;strokeColor=#3A5431;" vertex="1" parent="WIyWlLk6GJQsqaUBKTNV-1">
          <mxGeometry x="340" y="200" width="120" height="60" as="geometry" />
        </mxCell>
        <mxCell id="-pZBTm40GzIMVZDB3EBW-8" value="" style="edgeStyle=none;curved=1;rounded=0;orthogonalLoop=1;jettySize=auto;html=1;fontSize=12;startSize=8;endSize=8;" edge="1" parent="WIyWlLk6GJQsqaUBKTNV-1" source="-pZBTm40GzIMVZDB3EBW-5" target="-pZBTm40GzIMVZDB3EBW-7">
          <mxGeometry relative="1" as="geometry" />
        </mxCell>
        <mxCell id="-pZBTm40GzIMVZDB3EBW-5" value="&quot;Las medidas de las piezas ingresadas en pulgadas son: &quot;, medidas_en_pulgadas" style="shape=parallelogram;perimeter=parallelogramPerimeter;whiteSpace=wrap;html=1;fixedSize=1;rounded=1;fillColor=#e3c800;fontColor=#000000;strokeColor=#B09500;" vertex="1" parent="WIyWlLk6GJQsqaUBKTNV-1">
          <mxGeometry x="250" y="280" width="300" height="60" as="geometry" />
        </mxCell>
        <mxCell id="-pZBTm40GzIMVZDB3EBW-7" value="FIN" style="ellipse;whiteSpace=wrap;html=1;fillColor=none;strokeColor=#FFF700;fontColor=#000000;rounded=1;" vertex="1" parent="WIyWlLk6GJQsqaUBKTNV-1">
          <mxGeometry x="360" y="360" width="80" height="80" as="geometry" />
        </mxCell>
      </root>
    </mxGraphModel>
  </diagram>
</mxfile>
